{
  "accessors": [
    {
      "bufferView": 2,
      "componentType": 5126,
      "count": 362,
      "max": [
        144.36398315429688,
        100.5,
        8.5
      ],
      "min": [
        -144.36398315429688,
        -100.5,
        -8.5
      ],
      "type": "VEC3"
    },
    {
      "bufferView": 2,
      "byteOffset": 4344,
      "componentType": 5126,
      "count": 362,
      "max": [
        0.9988360404968262,
        1.0,
        1.0
      ],
      "min": [
        -0.6509600281715393,
        0.0,
        -1.0
      ],
      "type": "VEC3"
    },
    {
      "bufferView": 1,
      "componentType": 5126,
      "count": 362,
      "max": [
        0.7895224094390869,
        0.9853540658950806
      ],
      "min": [
        0.01464592944830656,
        0.20340228080749512
      ],
      "type": "VEC2"
    },
    {
      "bufferView": 0,
      "componentType": 5125,
      "count": 852,
      "type": "SCALAR"
    },
    {
      "bufferView": 2,
      "byteOffset": 8688,
      "componentType": 5126,
      "count": 933,
      "max": [
        144.0,
        100.0,
        7.5
      ],
      "min": [
        -144.0,
        -100.0,
        -7.5
      ],
      "type": "VEC3"
    },
    {
      "bufferView": 2,
      "byteOffset": 19884,
      "componentType": 5126,
      "count": 933,
      "max": [
        1.0,
        1.0,
        1.0
      ],
      "min": [
        -1.0,
        -1.0,
        -1.0
      ],
      "type": "VEC3"
    },
    {
      "bufferView": 1,
      "byteOffset": 2896,
      "componentType": 5126,
      "count": 933,
      "max": [
        0.8369411826133728,
        0.9853540658950806
      ],
      "min": [
        0.015560394152998924,
        0.10858607292175293
      ],
      "type": "VEC2"
    },
    {
      "bufferView": 0,
      "byteOffset": 3408,
      "componentType": 5125,
      "count": 1728,
      "type": "SCALAR"
    },
    {
      "bufferView": 2,
      "byteOffset": 31080,
      "componentType": 5126,
      "count": 2528,
      "max": [
        101.70848083496094,
        77.3382339477539,
        8.227628707885742
      ],
      "min": [
        -101.70848083496094,
        -77.3382339477539,
        -8.227628707885742
      ],
      "type": "VEC3"
    },
    {
      "bufferView": 2,
      "byteOffset": 61416,
      "componentType": 5126,
      "count": 2528,
      "max": [
        1.0,
        1.0,
        1.0
      ],
      "min": [
        -1.0,
        -1.0,
        -1.0
      ],
      "type": "VEC3"
    },
    {
      "bufferView": 1,
      "byteOffset": 10360,
      "componentType": 5126,
      "count": 2528,
      "max": [
        0.9628498554229736,
        0.9829052090644836
      ],
      "min": [
        0.01464592944830656,
        0.014645934104919434
      ],
      "type": "VEC2"
    },
    {
      "bufferView": 0,
      "byteOffset": 10320,
      "componentType": 5125,
      "count": 3864,
      "type": "SCALAR"
    }
  ],
  "asset": {
    "extras": {
      "author": "Smith (https://sketchfab.com/smithedits)",
      "license": "CC-BY-4.0 (http://creativecommons.org/licenses/by/4.0/)",
      "source": "https://sketchfab.com/3d-models/exit-sign-0001-8b24f42be9e4408ea6a9bb79327968f6",
      "title": "EXIT SIGN 0001"
    },
    "generator": "Sketchfab-13.74.0",
    "version": "2.0"
  },
  "bufferViews": [
    {
      "buffer": 0,
      "byteLength": 25776,
      "name": "floatBufferViews",
      "target": 34963
    },
    {
      "buffer": 0,
      "byteLength": 30584,
      "byteOffset": 25776,
      "byteStride": 8,
      "name": "floatBufferViews",
      "target": 34962
    },
    {
      "buffer": 0,
      "byteLength": 91752,
      "byteOffset": 56360,
      "byteStride": 12,
      "name": "floatBufferViews",
      "target": 34962
    }
  ],
  "buffers": [
    {
      "byteLength": 148112,
      "uri": "scene.bin"
    }
  ],
  "extensionsUsed": [
    "KHR_materials_clearcoat"
  ],
  "materials": [
    {
      "doubleSided": true,
      "extensions": {
        "KHR_materials_clearcoat": {
          "clearcoatFactor": 1.0,
          "clearcoatRoughnessFactor": 0.0
        }
      },
      "name": "GLASS_0001",
      "pbrMetallicRoughness": {
        "baseColorFactor": [
          0.8,
          0.8,
          0.8,
          1.0
        ],
        "metallicFactor": 0.0,
        "roughnessFactor": 0.9393713384684432
      }
    },
    {
      "doubleSided": true,
      "emissiveFactor": [
        1.0,
        0.0,
        0.0
      ],
      "name": "RED_EMISSIVE_0001",
      "pbrMetallicRoughness": {
        "baseColorFactor": [
          0.0,
          0.0,
          0.0,
          1.0
        ],
        "metallicFactor": 0.0,
        "roughnessFactor": 0.9372332657393734
      }
    }
  ],
  "meshes": [
    {
      "name": "GLASS_GLASS_0001_0",
      "primitives": [
        {
          "attributes": {
            "NORMAL": 1,
            "POSITION": 0,
            "TEXCOORD_0": 2
          },
          "indices": 3,
          "material": 0,
          "mode": 4
        }
      ]
    },
    {
      "name": "BORDER_RED_EMISSIVE_0001_0",
      "primitives": [
        {
          "attributes": {
            "NORMAL": 5,
            "POSITION": 4,
            "TEXCOORD_0": 6
          },
          "indices": 7,
          "material": 1,
          "mode": 4
        }
      ]
    },
    {
      "name": "EXIT_RED_EMISSIVE_0001_0",
      "primitives": [
        {
          "attributes": {
            "NORMAL": 9,
            "POSITION": 8,
            "TEXCOORD_0": 10
          },
          "indices": 11,
          "material": 1,
          "mode": 4
        }
      ]
    }
  ],
  "nodes": [
    {
      "children": [
        1
      ],
      "matrix": [
        1.0,
        0.0,
        0.0,
        0.0,
        0.0,
        2.220446049250313e-16,
        -1.0,
        0.0,
        0.0,
        1.0,
        2.220446049250313e-16,
        0.0,
        0.0,
        0.0,
        0.0,
        1.0
      ],
      "name": "Sketchfab_model"
    },
    {
      "children": [
        2
      ],
      "matrix": [
        0.009999999776482582,
        0.0,
        0.0,
        0.0,
        0.0,
        0.0,
        0.009999999776482582,
        0.0,
        0.0,
        -0.009999999776482582,
        0.0,
        0.0,
        0.0,
        0.0,
        0.0,
        1.0
      ],
      "name": "d116ddc51d1c4fe7a171370c835122cb.fbx"
    },
    {
      "children": [
        3
      ],
      "name": "RootNode"
    },
    {
      "children": [
        4,
        5,
        7
      ],
      "matrix": [
        1.0,
        0.0,
        0.0,
        0.0,
        0.0,
        1.0,
        0.0,
        0.0,
        0.0,
        0.0,
        1.0,
        0.0,
        0.0,
        100.30628204345703,
        0.0,
        1.0
      ],
      "name": "GLASS"
    },
    {
      "mesh": 0,
      "name": "GLASS_GLASS_0001_0"
    },
    {
      "children": [
        6
      ],
      "name": "BORDER"
    },
    {
      "mesh": 1,
      "name": "BORDER_RED_EMISSIVE_0001_0"
    },
    {
      "children": [
        8
      ],
      "name": "EXIT"
    },
    {
      "mesh": 2,
      "name": "EXIT_RED_EMISSIVE_0001_0"
    }
  ],
  "scene": 0,
  "scenes": [
    {
      "name": "Sketchfab_Scene",
      "nodes": [
        0
      ]
    }
  ]
}
